<svg id="Livello_2" data-name="Livello 2" xmlns="http://www.w3.org/2000/svg" viewBox="0 0 656.161 542.604">
  <defs>
    <style>
      .cls-1 {
        fill: none;
        stroke: #f3eff5;
        stroke-linejoin: round;
        stroke-width: 15px;
      }

      .cls-2, .cls-3 {
        fill: #f3eff5;
      }

      .cls-3 {
        font-size: 99.583px;
        font-family: Mytupi-Bold, Mytupi;
        font-weight: 700;
      }

      .cls-4 {
        letter-spacing: 1.287em;
      }

      .cls-5 {
        letter-spacing: 0em;
      }

      .cls-6 {
        letter-spacing: 0.309em;
      }

      .cls-7 {
        letter-spacing: 0.262em;
      }

      .cls-8 {
        letter-spacing: 0.309em;
      }
    </style>
  </defs>
  <g>
    <g>
      <g>
        <polyline class="cls-1" points="465.326 35.183 235.887 264.622 153.204 181.94 18.089 268.656 279.245 7.5 543.425 271.681 617.39 197.716 543.425 271.681"/>
        <polygon class="cls-2" points="426.856 37.69 462.829 37.68 462.819 73.653 478.087 58.385 478.087 22.422 442.124 22.422 426.856 37.69"/>
      </g>
      <g>
        <line class="cls-1" x1="543.425" y1="271.681" x2="638.072" y2="176.782"/>
        <polygon class="cls-2" points="635.616 215.256 635.578 179.282 599.605 179.34 614.853 164.052 650.816 164.004 650.864 199.967 635.616 215.256"/>
      </g>
    </g>
    <text class="cls-3" transform="translate(0 400.301)"><tspan class="cls-4">APE<tspan class="cls-5" x="589.639" y="0">X</tspan></tspan><tspan class="cls-6" x="0" y="119.499">VENT</tspan><tspan class="cls-7" x="388.844" y="119.499">U</tspan><tspan class="cls-8" x="486.902" y="119.499">R</tspan><tspan x="589.64" y="119.499">E</tspan></text>
  </g>
</svg>
