<svg id="Livello_1" data-name="Livello 1" xmlns="http://www.w3.org/2000/svg" viewBox="0 0 383.155 269.419">
  <defs>
    <style>
      .cls-1 {
        fill: #f3eff5;
      }
    </style>
  </defs>
  <g>
    <path class="cls-1" d="M691.937,606.633c-1.511,1.74-1.543,4.057-2.319,6.081-.872,2.273-1.531,2.553-3.389.664-11.8-11.987-23.723-23.853-35.6-35.765q-37.606-37.724-75.258-75.4c-2.065-2.059-2.08-3.087-.009-5.156q55.128-55.093,110.1-110.339c3.085-3.094,3.05-3.074,4.619,1.217.659,1.8.661,3.822,1.853,5.435Z" transform="translate(-308.782 -364.916)"/>
    <path class="cls-1" d="M328.711,368.234c3.8-2.178,7.8-2.86,11.874-3.225,1.239-.112,2.492-.075,3.739-.075q155.991,0,311.983-.018a34.474,34.474,0,0,1,16.2,3.437c-5.76,5.636-11.321,10.963-16.758,16.413q-72.524,72.7-145.013,145.425c-6.6,6.617-14.073,6.647-20.615.087q-79.5-79.737-158.991-159.484C330.347,370.009,329.606,369.183,328.711,368.234Z" transform="translate(-308.782 -364.916)"/>
    <path class="cls-1" d="M328.327,630.882c5.033-4.924,9.883-9.572,14.626-14.325q49.022-49.122,97.934-98.35c2.454-2.478,3.533-2.107,5.692.117,9.119,9.4,18.415,18.619,27.673,27.878,15.325,15.327,36.888,15.347,52.228.036q14.3-14.271,28.49-28.649c1.479-1.5,2.287-1.963,4.058-.18q55.9,56.256,111.941,112.383a16.118,16.118,0,0,1,1.031,1.29c-3.785,2.111-7.784,2.79-11.856,3.158-1.362.123-2.741.078-4.113.078q-155.629,0-311.26.017C339.246,634.336,333.883,633.771,328.327,630.882Z" transform="translate(-308.782 -364.916)"/>
    <path class="cls-1" d="M308.808,499.58q0-49.936-.026-99.873a38.843,38.843,0,0,1,2.356-13.151c.782-2.21,1.444-2.667,3.364-.716,11.8,12,23.739,23.87,35.624,35.789q37.634,37.747,75.315,75.447c2.121,2.114,1.946,3.141-.066,5.152Q370.213,557.36,315.192,612.634c-2.95,2.959-2.945,2.947-4.411-1.1a34.916,34.916,0,0,1-1.993-12.085Q308.842,549.517,308.808,499.58Z" transform="translate(-308.782 -364.916)"/>
  </g>
</svg>
