<svg id="Livello_1" data-name="Livello 1" xmlns="http://www.w3.org/2000/svg" viewBox="0 0 383.262 383.577">
  <defs>
    <style>
      .cls-1 {
        fill: #f3eff5;
      }
    </style>
  </defs>
  <g>
    <path class="cls-1" d="M308.088,411.456c1.555-1.956,1.093-4.422,1.678-6.622,2.02-7.6,5.427-14.479,10.994-20.1,10.1-10.2,20.213-20.393,30.511-30.393,8.472-8.228,18.259-11.964,29.983-7.417a33.973,33.973,0,0,1,11.6,8.01q21.872,21.822,43.66,43.726c6.82,6.874,11.584,14.673,10.176,24.952-1.036,7.566-5.328,13.3-10.5,18.489-8.453,8.5-16.983,16.913-25.462,25.381-4.373,4.367-4.443,5.488-1.911,11.162,9.7,21.734,24.581,39.792,40.527,57.057a270.9,270.9,0,0,0,52.972,44.882c6.721,4.3,13.945,7.683,21.042,11.3,3.382,1.722,5.683.025,7.9-2.206,8.809-8.845,17.592-17.717,26.447-26.514,5.2-5.166,10.94-9.34,18.573-10.272,7.383-.9,13.74,1.373,19.508,5.694a53.575,53.575,0,0,1,5.6,4.961q21.366,21.267,42.675,42.593c4.741,4.735,8.712,9.971,10.107,16.694,1.713,8.248-.267,15.931-5.831,21.93-11.109,11.979-22.44,23.806-34.371,34.955C602.7,690.254,588.45,692.486,573.5,691.4c-25.181-1.827-48.263-10.516-70.588-21.619a370.706,370.706,0,0,1-94.394-66.5c-38.82-37.84-70.2-80.865-89.613-131.929-4.739-12.468-8.577-25.221-10.075-38.56-.059-.519-.166-.962-.745-1.112Z" transform="translate(-308.088 -308.072)"/>
    <path class="cls-1" d="M508.105,308.072c1.87,1.4,4.169,1.088,6.264,1.462a213.578,213.578,0,0,1,103.646,49.2c34.028,29.324,57.177,65.76,69.042,109.192,1.605,5.877,2.621,11.913,4.108,17.825.45,1.79.144,2.459-1.654,2.753-8.483,1.386-16.968,2.773-25.421,4.326-2.561.47-2.212-1.257-2.474-2.619a188.929,188.929,0,0,0-77.792-120.218,185.521,185.521,0,0,0-78.955-31.72c-2.91-.456-2.98-1.665-2.654-3.916,1.268-8.754,2.437-17.522,3.642-26.285Z" transform="translate(-308.088 -308.072)"/>
    <path class="cls-1" d="M498.288,411.659c1.1-7.78,2.323-16.166,3.438-24.567.255-1.925.955-2.27,2.862-1.963a128.488,128.488,0,0,1,57.287,24c24.483,18.272,41,42.125,49.2,71.633.466,1.677.873,3.373,1.227,5.077,1.537,7.4,1.528,7.411-5.811,8.647-6.388,1.076-12.815,1.958-19.154,3.267-2.587.533-3.148-.318-3.591-2.567a101.75,101.75,0,0,0-81.536-80.049C498.167,414.409,498.161,414.444,498.288,411.659Z" transform="translate(-308.088 -308.072)"/>
  </g>
</svg>
